<?xml version="1.0" encoding="utf-8"?>
<!-- Svg Vector Icons : http://www.onlinewebfonts.com/icon -->
<!DOCTYPE svg PUBLIC "-//W3C//DTD SVG 1.1//EN" "http://www.w3.org/Graphics/SVG/1.1/DTD/svg11.dtd">
<svg version="1.1" xmlns="http://www.w3.org/2000/svg" xmlns:xlink="http://www.w3.org/1999/xlink" x="0px" y="0px" viewBox="0 0 256 256" enable-background="new 0 0 256 256" xml:space="preserve">
<metadata> Svg Vector Icons : http://www.onlinewebfonts.com/icon </metadata>
<g><g><path fill="#000000" d="M182.1,50.4c-6.8,4.8-13.5,8.9-20.8,14.9c-5.5,4.5-15.5,10.7-16.1,19c-0.8,12.7,18.7,24.4,8.3,40.4c-3.9,6.1-10.6,8.7-19,12.5c-1-1.9,2.2-3.4,3.6-5.3c13-18.8-13.5-25-10.1-48.2C131.3,61.4,157.6,53.6,182.1,50.4z"/><path fill="#000000" d="M99.5,127.7c-6.1,2.9-16.4,3.4-20.8,9.5c4.5,3.4,11.1,3.3,17.2,3.6c25.1,1.1,56.5-1,77.9-4.8c0.7,1.5-3,4.2-5.3,5.9C155,151.9,113,154.7,84,152.7c-9.7-0.7-31.9-3.2-32.1-11.9c-0.3-10.5,26.9-11.7,38-12.5C92.1,128.1,96.3,127.3,99.5,127.7z"/><path fill="#000000" d="M87,154.5c2.8,0.4-2,2-1.2,4.2c10.2,10.1,42,7.2,57.7,4.2c3.3-0.7,6.5-2.6,8.9-2.4c5.9,0.5,9.8,7.4,14.9,8.3c-18.1,8.1-53,12-78.5,7.1c-6.6-1.3-18.1-4.8-18.4-10.1C69.8,158.6,81.7,155.5,87,154.5z"/><path fill="#000000" d="M94.7,178.9c1.9,0.6-0.7,1.6-0.6,2.4c5.4,9.4,32.2,6.1,45.8,3c2.7-0.7,5.5-2.6,7.7-2.4c6.9,0.5,9.5,7.7,15.5,8.9c-19,11.6-64.9,16.3-83.8,1.8C78.4,182,86.9,180.8,94.7,178.9z"/><path fill="#000000" d="M77.4,196.7c-5.7,1.4-20.3-0.6-20.8,7.1c-0.2,3,5,6.5,8.3,7.7c19.4,7.3,58.3,8.5,90.4,4.8c14.9-1.7,42.8-6.7,39.3-22c4.5,0.5,8.5,3.4,8.9,7.7c1.8,16.4-35.9,23.3-51.1,25c-33.1,3.6-74.5,2.9-99.9-5.9c-8.3-2.9-18.3-8.1-17.8-16.1C35.4,191.7,67.5,188,77.4,196.7z"/><path fill="#000000" d="M128,246c-22.3-2.4-43.8-5.7-61.8-13.7c47.3,11.4,116.2,10.5,149.3-13.7c1.8-1.3,3.4-3.9,5.9-3.6c-8.3,25-40.3,26.7-67.8,30.9C145,246,136.5,246,128,246z"/><path fill="#000000" d="M143.5,10c4.2,3.9,7.1,11.2,7.1,19c0,23-24.4,36.3-36.3,51.7c-2.6,3.4-6,8.7-5.9,14.3c0.1,12.5,13.1,26.6,17.8,36.9c-8.3-5.5-18.4-12.8-25.6-21.4C93.5,101.9,86.4,88,92.9,76c9.8-18.1,39-28.8,49.3-48.2C144.8,23.1,146.7,15.9,143.5,10z"/><path fill="#000000" d="M178.5,133.7c12.3-10.5,33-6.4,33.9,11.3c1,20.7-21.7,32.3-38,33.3c7.6-7.2,27.7-18.9,23.8-35.7C196.6,135.8,188.1,131.7,178.5,133.7z"/></g></g>
</svg>