<?xml version="1.0" encoding="iso-8859-1"?>
<!-- Uploaded to: SVG Repo, www.svgrepo.com, Generator: SVG Repo Mixer Tools -->
<svg height="800px" width="800px" version="1.1" id="Capa_1" xmlns="http://www.w3.org/2000/svg" xmlns:xlink="http://www.w3.org/1999/xlink" 
	 viewBox="0 0 369.946 369.946" xml:space="preserve">
<g>
	<path style="fill:#010002;" d="M361.658,130.161l0.37-0.322l-0.788-0.925C337.444,54.245,267.429,0,184.973,0
		C82.975,0,0,82.981,0,184.973c0,101.998,82.981,184.973,184.973,184.973s184.973-82.975,184.973-184.973
		C369.952,165.897,367.046,147.489,361.658,130.161z M347.767,126.337l-91.311,78.053l45.527-146.767
		C322.336,76.334,338.196,99.838,347.767,126.337z M292.09,49.227l-35.652,114.946L213.143,14.261
		C242.625,19.112,269.601,31.439,292.09,49.227z M238.353,146.916l0.871,0.656l0.251,0.865
		C239.122,147.919,238.723,147.429,238.353,146.916z M238.681,184.973c0,26.803-19.762,49.018-45.468,53.004l-8.407,0.686
		c-7.184-0.018-14.04-1.468-20.299-4.069l-14.446-8.903c-3.121-2.685-5.913-5.722-8.354-9.052l-7.572-14.511
		c-1.826-5.394-2.858-11.152-2.858-17.161c0-12.029,4.022-23.11,10.728-32.066l12.572-12.155c8.652-5.967,19.124-9.481,30.401-9.481
		C214.587,131.271,238.681,155.365,238.681,184.973z M184.973,11.934c5.149,0,10.233,0.269,15.275,0.716l33.438,115.769
		L105.5,31.344C129.32,18.969,156.332,11.934,184.973,11.934z M94.187,37.746l112.929,85.517
		c-6.928-2.494-14.362-3.926-22.143-3.926H24.9C38.868,85.404,63.303,56.858,94.187,37.746z M11.934,184.973
		c0-18.748,3.037-36.786,8.574-53.702h126.85c-5.424,3.813-10.221,8.425-14.273,13.664L24.589,249.815
		C16.457,229.772,11.934,207.898,11.934,184.973z M29.775,261.391l89.348-86.37l-8.706,165.986
		C75.469,324.228,46.947,296.118,29.775,261.391z M184.973,358.012c-22.185,0-43.373-4.266-62.879-11.904l6.695-127.637
		c0.889,1.486,1.712,3.019,2.715,4.427l70.051,134.302C196.095,357.72,190.57,358.012,184.973,358.012z M214.139,355.506
		l-58.326-111.819c1.044,0.519,2.076,1.056,3.145,1.516l128.377,79.18C266.099,340.01,241.175,350.9,214.139,355.506z
		 M297.258,316.477l-107.213-66.125c1.444-0.113,2.87-0.286,4.284-0.489l155.658-12.787
		C340.106,268.294,321.584,295.676,297.258,316.477z M353.334,224.826l-113.305,9.308l111.652-95.44
		c4.105,14.744,6.337,30.252,6.337,46.285C358.018,198.691,356.365,212.021,353.334,224.826z"/>
</g>
</svg>