<?xml version="1.0" encoding="UTF-8"?> <svg xmlns="http://www.w3.org/2000/svg" id="Слой_1" data-name="Слой 1" viewBox="0 0 747.94 532"><defs><style>.cls-1,.cls-3{stroke:#fff;stroke-miterlimit:10;}.cls-1{stroke-width:10px;}.cls-2,.cls-4{fill:#fff;}.cls-3{stroke-width:11px;}.cls-4{font-size:232.19px;font-family:MyriadPro-Regular, Myriad Pro;}</style></defs><path class="cls-1" d="M1242.06,485.6h-420V578c29,57.91,393,60.67,420,0Z" transform="translate(-817.06 -157)"></path><path class="cls-1" d="M1242.5,397.77h-420v92.38c29,57.91,393,60.67,420,0Z" transform="translate(-817.06 -157)"></path><path class="cls-1" d="M1242.5,304h-420V396.4c29,57.91,393,60.66,420,0Z" transform="translate(-817.06 -157)"></path><path class="cls-1" d="M1242.5,213h-420v92.37c29,57.91,393,60.67,420,0Z" transform="translate(-817.06 -157)"></path><ellipse class="cls-1" cx="215.94" cy="55.33" rx="209.5" ry="50.33"></ellipse><ellipse class="cls-2" cx="43.44" cy="126.33" rx="9.5" ry="13.1"></ellipse><ellipse class="cls-2" cx="43.44" cy="217.33" rx="9.5" ry="13.1"></ellipse><ellipse class="cls-2" cx="43.44" cy="306.96" rx="9.5" ry="13.1"></ellipse><ellipse class="cls-2" cx="43.44" cy="402.09" rx="9.5" ry="13.1"></ellipse><rect class="cls-3" x="193.44" y="283.5" width="549" height="236" rx="56.11"></rect><text class="cls-4" transform="translate(294.9 473.95)">SQL</text></svg> 